
  <svg version="1.1" id="layer1" xmlns="http://www.w3.org/2000/svg" xmlnsXlink="http://www.w3.org/1999/xlink" x="0px" y="0px" viewBox="0 0 1920 1080" style="enable-background:new 0 0 1920 1080;" xmlSpace="preserve">
    <g>
      <path id="m_x5F_01" d="M368.4,421.9h16.5l33.6,44l33.5-44h16.3v107.2h-3.8V425.7h-10.8L418.6,472L383,425.7h-10.8v103.4h-3.8V421.9
      z M380.4,435.1h0.6l36.9,48.6h1.3l36.6-48.6h0.6v94h-3.8v-83.4L420,488.2h-2.8l-33-42.6v83.4h-3.8V435.1z" />
      <path id="y_x5F_02" d="M529.7,472.3l-39.6-50.4h4.4l39,49.3v57.8h-3.8V472.3z M504.4,421.9h4.4l28.6,36.9l29.1-36.9h4.4l-33.5,42.3
      L504.4,421.9z M541.6,471.2l39-49.3h4.4l-39.6,50.4v56.7h-3.8V471.2z" />
      <path id="p_x5F_03" d="M672.3,421.9h31.9c23.4,0,35.7,12.3,35.7,32.4c0,20.7-13.5,31.1-38,31.1H688v43.7h-3.8v-47.5h17.9
      c22.6,0,33.9-8.6,33.9-27.5c0-18.4-11.5-28.4-32.5-28.4h-27.5v103.4h-3.8V421.9z M684.3,433.1h17.1c17.8,0,26.4,6.3,26.4,20.4
      c0,14.3-8.3,20.7-26.4,20.7h-17.1V433.1z M701.9,470.5c17.9,0,22.2-6.9,22.2-17.1c0-10.1-5-16.5-22.2-16.5H688v33.6H701.9z" />
      <path id="o_x5F_04" d="M752.8,475.8c0-28,20.1-55.3,57.4-55.3c34.1,0,57.8,24.4,57.8,54.8c0,28.6-21.4,55.2-58.6,55.2
      C775.4,530.5,752.8,505.2,752.8,475.8z M864.2,475.3c0-28.6-22.3-51.1-54.1-51.1c-34.9,0-53.6,25.3-53.6,51.5
      c0,27.5,21.1,50.9,52.8,50.9C844.1,526.7,864.2,502.2,864.2,475.3z M764.9,475.8c0-24.8,17-44.6,45.7-44.6c29.9,0,45.3,24,45.3,44
      c0,29.9-21.5,44.6-46.2,44.6C785.8,519.8,764.9,501.7,764.9,475.8z M852.1,475.2c0-18.2-14-40.2-41.5-40.2c-26.6,0-42,18.1-42,40.9
      c0,23.7,19,40.2,41,40.2C832.5,516,852.1,502.5,852.1,475.2z" />
      <path id="r_x5F_05" d="M886,421.9h29.5c23.1,0,32.7,12.9,32.7,29.9c0,12.4-4.9,20.9-17,25.8c5.5,3,8.5,5.8,13.8,14.3l23.6,37.2h-5
      l-21.5-34.6c-7.5-11.8-11.9-14.5-19.3-17.8v-0.3c14.6-2.8,21.7-10.7,21.7-24.7c0-16.2-10.1-26.1-29.4-26.1h-25.3v103.4H886V421.9z
      M898,433.2h16.7c11.5,0,21.5,4.6,21.5,18.1c0,15.1-8.6,19.8-25.9,19.8H898V433.2z M898,478.6h10.5c10.7,0,18.5,7.1,27.7,21.4
      l18.4,29.1h-5l-16.3-26.4c-10.5-17.1-17.6-20.3-25.1-20.3h-6.3v46.7H898V478.6z M910.9,467.3c11.2,0,21.5-1.3,21.5-15.6
      c0-10.4-6.3-14.8-17.9-14.8h-12.7v30.3H910.9z" />
      <path id="t_x5F_06" d="M981.7,421.9h89.6v3.8h-89.6V421.9z M1018.3,436.8h-36.6v-3.8h40.4v96h-3.8V436.8z M1030.3,433.1h41v3.8
      h-37.2v92.2h-3.8V433.1z" />
      <path id="f_x5F_06" d="M1095.7,421.9h57.2v3.8h-53.4v103.4h-3.8V421.9z M1107.6,433.1h45.3v3.8h-41.5v28h41.5v3.8h-45.3V433.1z
      M1107.6,476.1h45.3v3.8h-41.5v49.2h-3.8V476.1z" />
      <path id="o_x5F_07" d="M1182.7,475.8c0-28,20.1-55.3,57.4-55.3c34.1,0,57.8,24.4,57.8,54.8c0,28.6-21.4,55.2-58.6,55.2
      C1205.3,530.5,1182.7,505.2,1182.7,475.8z M1294.1,475.3c0-28.6-22.3-51.1-54.1-51.1c-34.9,0-53.6,25.3-53.6,51.5
      c0,27.5,21.1,50.9,52.8,50.9C1274,526.7,1294.1,502.2,1294.1,475.3z M1194.8,475.8c0-24.8,17-44.6,45.7-44.6
      c29.9,0,45.3,24,45.3,44c0,29.9-21.5,44.6-46.2,44.6C1215.7,519.8,1194.8,501.7,1194.8,475.8z M1282,475.2
      c0-18.2-14-40.2-41.5-40.2c-26.6,0-42,18.1-42,40.9c0,23.7,19,40.2,41,40.2C1262.4,516,1282,502.5,1282,475.2z" />
      <path id="l_x5F_08" d="M1316,421.9h3.8v103.4h60v3.8H1316V421.9z M1327.9,421.9h3.8V514h48.1v3.8h-51.9V421.9z" />
      <path id="i_x5F_09" d="M1405.7,421.9h3.8v107.2h-3.8V421.9z M1417.6,421.9h3.8v107.2h-3.8V421.9z" />
      <path id="o_x5F_10" d="M1441,475.8c0-28,20.1-55.3,57.4-55.3c34.1,0,57.8,24.4,57.8,54.8c0,28.6-21.4,55.2-58.6,55.2
      C1463.7,530.5,1441,505.2,1441,475.8z M1552.5,475.3c0-28.6-22.3-51.1-54.1-51.1c-34.9,0-53.6,25.3-53.6,51.5
      c0,27.5,21.1,50.9,52.8,50.9C1532.3,526.7,1552.5,502.2,1552.5,475.3z M1453.1,475.8c0-24.8,17-44.6,45.7-44.6
      c29.9,0,45.3,24,45.3,44c0,29.9-21.5,44.6-46.2,44.6C1474,519.8,1453.1,501.7,1453.1,475.8z M1540.4,475.2
      c0-18.2-14-40.2-41.5-40.2c-26.6,0-42,18.1-42,40.9c0,23.7,19,40.2,41,40.2C1520.7,516,1540.4,502.5,1540.4,475.2z" />
    </g>
  </svg>
